<svg width="40" height="38" viewBox="0 0 40 38" fill="none" xmlns="http://www.w3.org/2000/svg">
<path d="M20.5938 7.12908C20.2517 6.83393 19.7483 6.83393 19.4063 7.12908L5.70498 18.9467C5.50526 19.1187 5.38989 19.3704 5.38989 19.636V36.7262C5.38989 37.2298 5.79691 37.6359 6.2988 37.6359H33.7014C34.2031 37.6359 34.6103 37.2296 34.6103 36.7262V19.636C34.6103 19.3703 34.4949 19.1185 34.2952 18.9467L20.5938 7.12908ZM32.7918 35.8182H7.20841V20.0509L20.0001 9.01623L32.7918 20.0509V35.8182Z" fill="#19BCE4"/>
<path d="M39.3668 16.4379L21.1855 0.80261C20.5033 0.217489 19.4963 0.217489 18.814 0.80261L0.632614 16.4379C-0.128646 17.0924 -0.215383 18.24 0.439071 19.0021C1.09535 19.7625 2.24285 19.8494 3.00327 19.1948L19.9997 4.5786L36.9961 19.1948C37.3399 19.4901 37.7609 19.6359 38.1801 19.6359C38.6923 19.6359 39.2009 19.4207 39.5603 19.0021C40.2149 18.24 40.1281 17.0924 39.3668 16.4379Z" fill="#19BCE4"/>
<path d="M15.5893 17.3579C13.3567 17.3579 10.8445 18.5784 10.4904 22.0003C9.78024 28.863 19.3775 34.0054 19.7855 34.2224C19.8523 34.2571 19.9253 34.2745 19.9982 34.2745C20.0703 34.2745 20.144 34.2571 20.2109 34.2224C20.6189 34.0054 30.2161 28.863 29.5077 22.0003C29.1545 18.5784 26.6415 17.3579 24.408 17.3579C22.8255 17.3579 21.2074 17.9186 19.9983 18.87C18.7889 17.9186 17.1701 17.3579 15.5893 17.3579Z" fill="#19BCE4"/>
</svg>
